
<svg id="icons" version="1.1" viewBox="0 0 340 340" xmlns="http://www.w3.org/2000/svg" xmlns:cc="http://creativecommons.org/ns#" xmlns:dc="http://purl.org/dc/elements/1.1/" xmlns:rdf="http://www.w3.org/1999/02/22-rdf-syntax-ns#">

 <path d="m93.172 139.57c-33.217-6.254-64.554-10.6-76.347-12.163-0.423 18.78 1.445 30.062 1.445 30.062l73.977 7.911a173.02 173.02 0 0 1 0.925-25.81z"/>
 <path d="m174.99 250.66-7.191 7.274a291.17 291.17 0 0 1 25.158 72.251h11.927c-0.157-18-2.19-40.468-9.187-61.818a146.89 146.89 0 0 0-9.471-21.993c-3.682 1.215-7.43 2.627-11.236 4.286z" />
 <path d="m187.61 248.87a106.03 106.03 0 0 0-9.338-14.971c-37.415-49.828-20.386-79.227-20.386-79.227-18.754-5.73-42.166-10.855-64.712-15.1a173.02 173.02 0 0 0-0.924 25.809l44.894 4.8a77.531 77.531 0 0 0-0.617 21.49 82.887 82.887 0 0 0 14.863 38.676 228.88 228.88 0 0 1 16.411 27.584 106.66 106.66 0 0 1 19.809-9.061z"/>
 <circle cx="311.62" cy="45.133" r="3.717"/>
 <path d="m231.05 72.743a3.5 3.5 0 0 1-2.521-5.927l10.275-10.678a11.543 11.543 0 0 0 3.166-9.26l-0.419-3.878a18.527 18.527 0 0 1 2.6-11.647 93.988 93.988 0 0 1 17.8-20.727 3.5 3.5 0 0 1 4.474 5.374 88.451 88.451 0 0 0-16.317 19.019 11.487 11.487 0 0 0-1.6 7.225l0.419 3.88a18.53 18.53 0 0 1-5.082 14.864l-10.272 10.682a3.494 3.494 0 0 1-2.523 1.073z"/>
 <path d="m248.69 97.262a3.5 3.5 0 0 1-1.554-6.638l13.283-6.569a11.536 11.536 0 0 0 6.115-7.64l0.92-3.794a18.517 18.517 0 0 1 6.387-10.078 91.805 91.805 0 0 1 16.03-10.062 3.5 3.5 0 1 1 3.114 6.27 84.669 84.669 0 0 0-14.78 9.264 11.491 11.491 0 0 0-3.948 6.258l-0.921 3.793a18.522 18.522 0 0 1-9.815 12.265l-13.282 6.569a3.5 3.5 0 0 1-1.549 0.362z"/>
 <path d="m275.46 121.92a18.763 18.763 0 0 1-3.027-0.247l-14.622-2.4a3.5 3.5 0 0 1 1.135-6.908l14.623 2.4a11.53 11.53 0 0 0 9.426-2.646l2.958-2.545a18.5 18.5 0 0 1 11.064-4.471 94.09 94.09 0 0 1 27.167 2.9 3.5 3.5 0 0 1-1.891 6.74 88.636 88.636 0 0 0-24.919-2.649 11.492 11.492 0 0 0-6.855 2.785l-2.958 2.546a18.516 18.516 0 0 1-12.101 4.495z" />
 <path d="m208.37 328.44c-0.335-22.3-3.621-51.853-15.89-77.616 18.058-6.251 34.966-6.977 46.687-6.836 3.1 27.251 5.825 56.6 7.529 86.191h6.992c0-0.067 0.012-0.132 8e-3 -0.2-5.176-90.179-19.8-178.12-25.84-211.75a35.9 35.9 0 0 0-18.614-25.48c-68.291-36.3-167.91-71.164-168.9-71.511a3.5 3.5 0 1 0-2.3 6.609c0.651 0.228 43.521 15.233 92.081 35.7-26.6 24.269-36.42 52.055-39.867 72.1-27.336-4.972-54.323-8.892-72.961-11.4a3.364 3.364 0 0 0-3.965 3.394c-0.4 18.705 1.421 29.928 1.5 30.4a3.5 3.5 0 0 0 3.081 2.908l115.24 12.323a82.656 82.656 0 0 0-0.1 18.765 86.67 86.67 0 0 0 15.474 40.314c29.138 41.681 39.65 91.581 40.882 97.829h18.966c-7e-3 -0.295-2e-3 -1.431-7e-3 -1.74zm29.986-91.462c-12.428-0.1-30.139 0.82-49.1 7.558a108.09 108.09 0 0 0-7.737-12.122c2.486-3.458 19.635-25.672 52.295-31.142 1.543 11.295 3.077 23.256 4.542 35.706zm-5.5-42.643a90.043 90.043 0 0 0-55.627 32.131 123.58 123.58 0 0 1-14.838-27.863c5.767-4.224 35.318-24.44 68.04-21.109q1.204 8.095 2.429 16.841zm-3.491-23.95c-32.077-2.542-60.035 14.754-69.212 21.193-5.432-19.965-0.654-32.132 0.516-34.659 3.96-3.123 30.877-23 64.169-15.019 1.394 8.36 2.93 17.931 4.531 28.485zm-16.34-66.2a28.88 28.88 0 0 1 7.938 15.281c0.752 4.183 1.637 9.21 2.62 14.98-33.533-6.694-59.943 11.361-66.449 16.346-0.393-0.117-0.784-0.235-1.182-0.352 5.892-8.898 27.295-38.372 57.077-46.254zm-31.822-17.735c8.54 4.108 16.862 8.285 24.757 12.481 0.039 0.021 0.076 0.045 0.115 0.065-32.136 11.139-53.3 43.227-57.17 49.453-4.6-1.251-9.419-2.472-14.4-3.66 2.031-10.15 11.24-43.485 46.293-58.12a3.347 3.347 0 0 0 0.405-0.219zm-43.951-19.868c11.854 5.073 23.935 10.439 35.73 15.966-34.056 16.857-43.164 49.471-45.334 60.651-9.83-2.225-20.135-4.322-30.492-6.272 4.703-27.656 18.18-51.308 40.096-70.345zm58.594 260.1c-2.471-11.947-13.364-57.969-41.586-98.34a79.651 79.651 0 0 1-14.25-37.036 73.876 73.876 0 0 1 0.583-20.517 3.5 3.5 0 0 0-3.076-4.087l-116.14-12.422a190.65 190.65 0 0 1-1.109-22.563c34.759 4.75 93.818 13.817 132.85 25.183-3.512 9.946-8.585 37.893 22.355 79.1 20.2 26.9 25.259 63.791 25.859 90.681z" />
 <path d="m82.965 134.11c-3.4104-0.42981-4.0075-1.083-4.6737-5.1124-1.3505-8.1681-0.83371-26.796 1.0687-38.526 1.8032-11.118 7.5956-29.654 11.716-37.491l2.049-3.8975 10.71 4.6036-2.3858 4.7208c-3.3708 6.6697-8.5474 22.596-10.356 31.861-0.8439 4.3226-1.4901 16.156-1.4359 26.297 0.07072 13.245-0.30711 18.381-1.3416 18.237-0.79205-0.11002-3.1996-0.42179-5.35-0.69282z" style="fill:none;stroke-width:1.25"/>
 <path d="m76.662 132.85-3.9626-0.4967-0.91189-9.6158c-1.1942-12.593 1.1329-34.6 5.1099-48.324 2.6797-9.2471 8.7108-25.328 10.025-26.729 0.71244-0.75972 9.3274 2.4601 9.3274 3.4861 0 0.53909-1.6615 4.6445-3.6922 9.1232-7.9569 17.549-12.415 44.592-10.409 63.14 0.77055 7.1251 0.70748 10.251-0.20406 10.112-0.72563-0.11002-3.1025-0.42356-5.2819-0.69674z" style="fill:none;stroke-width:1.25"/>
 <path d="m76.662 132.85-3.9626-0.4967-0.91189-9.6158c-1.1942-12.593 1.1329-34.6 5.1099-48.324 2.6797-9.2471 8.7108-25.328 10.025-26.729 0.71244-0.75972 9.3274 2.4601 9.3274 3.4861 0 0.53909-1.6615 4.6445-3.6922 9.1232-7.9569 17.549-12.415 44.592-10.409 63.14 0.77055 7.1251 0.70748 10.251-0.20406 10.112-0.72563-0.11002-3.1025-0.42356-5.2819-0.69674z" style="fill:none;stroke-width:1.25"/>
 <path d="m76.662 132.85-3.9626-0.4967-0.91189-9.6158c-1.1942-12.593 1.1329-34.6 5.1099-48.324 2.6797-9.2471 8.7108-25.328 10.025-26.729 0.71244-0.75972 9.3274 2.4601 9.3274 3.4861 0 0.53909-1.6615 4.6445-3.6922 9.1232-7.9569 17.549-12.415 44.592-10.409 63.14 0.77055 7.1251 0.70748 10.251-0.20406 10.112-0.72563-0.11002-3.1025-0.42356-5.2819-0.69674z" style="fill:none;stroke-width:1.25"/>
</svg>
